<svg width="30" height="30" viewBox="0 0 30 30" fill="none" xmlns="http://www.w3.org/2000/svg">
<g id="VK 1" clip-path="url(#clip0_8_35)">
<path id="Vector" d="M15 30C23.2843 30 30 23.2843 30 15C30 6.71573 23.2843 0 15 0C6.71573 0 0 6.71573 0 15C0 23.2843 6.71573 30 15 30Z" fill="#0077FF"/>
<path id="Vector_2" fill-rule="evenodd" clip-rule="evenodd" d="M21.4846 11.5247C21.5852 11.1702 21.4846 10.9092 21.0027 10.9092H19.4119C19.007 10.9092 18.8204 11.1345 18.7192 11.3832C18.7192 11.3832 17.9101 13.4585 16.764 14.8065C16.3932 15.1975 16.2246 15.3215 16.0223 15.3215C15.921 15.3215 15.7689 15.1975 15.7689 14.8423V11.5247C15.7689 11.0988 15.6574 10.9092 15.3205 10.9092H12.8186C12.5659 10.9092 12.4138 11.1065 12.4138 11.2943C12.4138 11.6975 12.9872 11.791 13.0459 12.9261V15.3923C13.0459 15.9332 12.9532 16.0313 12.7508 16.0313C12.2115 16.0313 10.8993 13.9462 10.1206 11.5605C9.96964 11.0962 9.81692 10.9092 9.41028 10.9092H7.81818C7.36364 10.9092 7.27274 11.1345 7.27274 11.3832C7.27274 11.8261 7.81212 14.0261 9.78483 16.9358C11.0999 18.9228 12.9514 20.0001 14.638 20.0001C15.6496 20.0001 15.7744 19.7611 15.7744 19.3488V17.8468C15.7744 17.3683 15.8701 17.2728 16.1907 17.2728C16.4271 17.2728 16.8313 17.3975 17.7756 18.3553C18.8543 19.491 19.0319 20.0001 19.6391 20.0001H21.23C21.6846 20.0001 21.9125 19.7611 21.7816 19.2884C21.6373 18.8183 21.1221 18.1358 20.4391 17.3261C20.0682 16.865 19.5119 16.3683 19.3428 16.1195C19.107 15.8007 19.1743 15.6585 19.3428 15.3747C19.3428 15.3747 21.2821 12.5007 21.4839 11.5247H21.4846Z" fill="white"/>
</g>
<defs>
<clipPath id="clip0_8_35">
<rect width="30" height="30" fill="white"/>
</clipPath>
</defs>
</svg>
